<?xml version="1.0" encoding="utf-8"?>
<!-- Generator: Adobe Illustrator 22.1.0, SVG Export Plug-In . SVG Version: 6.00 Build 0)  -->
<svg version="1.1" id="图层_1" 
xmlns="http://www.w3.org/2000/svg" 
xmlns:xlink="http://www.w3.org/1999/xlink" x="0px" y="0px"
height="5669.3335"
   width="5669.3335"
	 viewBox="0 0 595.3 807.9" style="enable-background:new 0 0 595.3 807.9;" xml:space="preserve">
<style type="text/css">
	.st0{fill:none;stroke:#332084;stroke-width:10.9157;stroke-linecap:round;stroke-linejoin:round;stroke-miterlimit:10;}
	.st1{fill:#332084;}
	.st2{fill:none;stroke:#332084;stroke-width:11.4198;stroke-linecap:round;stroke-linejoin:round;stroke-miterlimit:10;}
	.st3{font-family:'PingFang-SC-Regular';}
	.st4{font-size:23.7282px;}
</style>
<path class="st0" d="M354.7,320.9c9.6-5.5,20.7-8.6,32.5-8.6c21,0,39.7,9.9,51.8,25.2"/>
<path class="st0" d="M438.7,418.9c-12,15.1-30.6,24.8-51.5,24.8c-11.3,0-21.9-2.8-31.2-7.9"/>
<line class="st0" x1="301.4" y1="389.8" x2="327.1" y2="445.3"/>
<circle class="st1" cx="439" cy="336.6" r="9.6"/>
<circle class="st1" cx="438.7" cy="418.9" r="9.6"/>
<circle class="st1" cx="301.4" cy="388.6" r="9.6"/>
<polyline class="st2" points="148.7,316 207.5,444.3 262.4,314.4 "/>
<circle class="st1" cx="261.5" cy="316.3" r="9.6"/>
<circle class="st1" cx="149" cy="316.3" r="9.6"/>
<g>
	<text transform="matrix(1 0 0 1 143.646 494.7301)" class="st1 st3 st4">Variational Quantum Circuit</text>
</g>
<path class="st0" d="M289.8,313c35.6,2,62,29.1,62,65.4s-29.4,65.7-65.7,65.7c-16.5,0-31.9-6.5-43.5-16.6"/>
</svg>
