<?xml version="1.0" encoding="utf-8"?>
<!-- Generator: Adobe Illustrator 22.1.0, SVG Export Plug-In . SVG Version: 6.00 Build 0)  -->
<svg version="1.1" id="图层_1" xmlns="http://www.w3.org/2000/svg" xmlns:xlink="http://www.w3.org/1999/xlink" x="0px" y="0px"
	 viewBox="0 0 10.7 217" style="enable-background:new 0 0 10.7 217;" xml:space="preserve">
<style type="text/css">
	.st0{fill:none;stroke:#332084;stroke-width:10.9157;stroke-linecap:round;stroke-linejoin:round;stroke-miterlimit:10;}
	.st1{fill:#332084;}
	.st2{fill:none;stroke:#332084;stroke-width:11.4198;stroke-linecap:round;stroke-linejoin:round;stroke-miterlimit:10;}
	.st3{font-family:'PingFang-SC-Regular';}
	.st4{font-size:23.7282px;}
</style>
<path class="st0" d="M66.1,28.7c9.6-5.5,20.7-8.6,32.5-8.6c21,0,39.7,9.9,51.8,25.2"/>
<path class="st0" d="M150.1,126.7c-12,15.1-30.6,24.8-51.5,24.8c-11.3,0-21.9-2.8-31.2-7.9"/>
<line class="st0" x1="12.8" y1="97.6" x2="38.5" y2="153.1"/>
<circle class="st1" cx="150.4" cy="44.4" r="9.6"/>
<circle class="st1" cx="150.1" cy="126.7" r="9.6"/>
<circle class="st1" cx="12.8" cy="96.4" r="9.6"/>
<polyline class="st2" points="-139.9,23.8 -81.1,152.1 -26.2,22.2 "/>
<circle class="st1" cx="-27.1" cy="24.1" r="9.6"/>
<circle class="st1" cx="-139.6" cy="24.1" r="9.6"/>
<g>
	<text transform="matrix(1 0 0 1 -144.954 202.5153)" class="st1 st3 st4">Variational Quantum Circuit</text>
</g>
<path class="st0" d="M1.2,20.8c35.6,2,62,29.1,62,65.4s-29.4,65.7-65.7,65.7c-16.5,0-31.9-6.5-43.5-16.6"/>
</svg>
